<?xml version="1.0" standalone="no"?>
<!DOCTYPE svg PUBLIC "-//W3C//DTD SVG 20010904//EN"
 "http://www.w3.org/TR/2001/REC-SVG-20010904/DTD/svg10.dtd">
<svg version="1.0" xmlns="http://www.w3.org/2000/svg"
 width="160.000000pt" height="160.000000pt" viewBox="0 0 160.000000 160.000000"
 preserveAspectRatio="xMidYMid meet">
<metadata>
Created by potrace 1.11, written by Peter Selinger 2001-2013
</metadata>
<g transform="translate(0.000000,160.000000) scale(0.100000,-0.100000)"
fill="#000000" stroke="none">
<path d="M197 1576 c-88 -32 -151 -95 -182 -183 -11 -30 -14 -156 -15 -588 0
-640 -3 -622 84 -709 89 -89 64 -86 712 -86 600 0 598 0 675 50 19 13 48 41
66 64 58 76 59 87 58 691 l-2 550 -23 53 c-30 69 -105 137 -173 157 -71 21
-1141 22 -1200 1z m365 -110 c-5 -6 -107 -206 -227 -443 -119 -238 -218 -433
-219 -433 -1 0 -2 170 -1 378 0 345 2 380 19 415 21 43 64 77 110 87 17 3 98
7 179 7 110 1 145 -2 139 -11z m314 -9 c16 -8 37 -24 47 -34 9 -11 139 -261
287 -556 205 -406 270 -544 270 -572 0 -40 -27 -100 -58 -128 -47 -43 -69 -44
-636 -43 -611 1 -592 -1 -643 79 -52 83 -56 73 242 666 148 294 281 546 296
561 47 47 134 59 195 27z m511 0 c18 -9 45 -34 60 -54 l28 -36 3 -386 c2 -212
1 -383 -2 -380 -7 7 -401 779 -444 871 -2 4 70 6 160 4 130 -2 169 -6 195 -19z"/>
<path d="M745 1046 c-17 -7 -35 -19 -41 -27 -7 -8 -71 -132 -143 -276 -143
-285 -151 -314 -109 -368 40 -51 65 -55 346 -55 281 0 315 5 347 54 40 61 36
75 -105 357 -73 145 -140 272 -149 283 -39 44 -92 56 -146 32z m185 -347 c67
-133 119 -246 117 -253 -5 -12 -490 -16 -503 -4 -8 9 246 509 256 503 5 -3 63
-114 130 -246z"/>
</g>
</svg>
